<svg width="25" height="24" viewBox="0 0 25 24" fill="none" xmlns="http://www.w3.org/2000/svg">
<path d="M8.26006 16.3C8.44339 16.4833 8.67672 16.575 8.96006 16.575C9.24339 16.575 9.47673 16.4833 9.66006 16.3L12.5601 13.4L15.4851 16.325C15.6684 16.5083 15.8977 16.5957 16.1731 16.587C16.4477 16.579 16.6767 16.4833 16.8601 16.3C17.0434 16.1167 17.1351 15.8833 17.1351 15.6C17.1351 15.3167 17.0434 15.0833 16.8601 14.9L13.9601 12L16.8851 9.075C17.0684 8.89167 17.1557 8.66233 17.1471 8.387C17.1391 8.11233 17.0434 7.88333 16.8601 7.7C16.6767 7.51667 16.4434 7.425 16.1601 7.425C15.8767 7.425 15.6434 7.51667 15.4601 7.7L12.5601 10.6L9.63506 7.675C9.45173 7.49167 9.22272 7.404 8.94806 7.412C8.67272 7.42067 8.44339 7.51667 8.26006 7.7C8.07673 7.88333 7.98506 8.11667 7.98506 8.4C7.98506 8.68333 8.07673 8.91667 8.26006 9.1L11.1601 12L8.23506 14.925C8.05173 15.1083 7.96439 15.3373 7.97306 15.612C7.98106 15.8873 8.07673 16.1167 8.26006 16.3ZM12.5601 22C11.1767 22 9.87673 21.7373 8.66006 21.212C7.44339 20.6873 6.38506 19.975 5.48506 19.075C4.58506 18.175 3.87273 17.1167 3.34806 15.9C2.82273 14.6833 2.56006 13.3833 2.56006 12C2.56006 10.6167 2.82273 9.31667 3.34806 8.1C3.87273 6.88333 4.58506 5.825 5.48506 4.925C6.38506 4.025 7.44339 3.31233 8.66006 2.787C9.87673 2.26233 11.1767 2 12.5601 2C13.9434 2 15.2434 2.26233 16.4601 2.787C17.6767 3.31233 18.7351 4.025 19.6351 4.925C20.5351 5.825 21.2474 6.88333 21.7721 8.1C22.2974 9.31667 22.5601 10.6167 22.5601 12C22.5601 13.3833 22.2974 14.6833 21.7721 15.9C21.2474 17.1167 20.5351 18.175 19.6351 19.075C18.7351 19.975 17.6767 20.6873 16.4601 21.212C15.2434 21.7373 13.9434 22 12.5601 22Z" fill="#D3D3D3"/>
</svg>
