<svg width="28" height="28" viewBox="0 0 28 28" fill="none" xmlns="http://www.w3.org/2000/svg">
<path d="M20.8985 5.86736L14 12.7659L7.10152 5.86736C6.9356 5.71553 6.7175 5.63357 6.49265 5.63855C6.2678 5.64353 6.05354 5.73507 5.89451 5.8941C5.73548 6.05314 5.64394 6.26739 5.63896 6.49224C5.63397 6.71709 5.71594 6.93519 5.86777 7.10111L12.7628 13.9996L5.86602 20.8964C5.78176 20.9767 5.7144 21.073 5.66791 21.1797C5.62142 21.2864 5.59672 21.4013 5.59528 21.5177C5.59384 21.6341 5.61568 21.7496 5.65952 21.8574C5.70335 21.9652 5.7683 22.0632 5.85055 22.1456C5.93279 22.2279 6.03067 22.293 6.13843 22.337C6.24619 22.381 6.36166 22.403 6.47804 22.4017C6.59443 22.4004 6.70938 22.3759 6.81615 22.3296C6.92292 22.2832 7.01935 22.216 7.09977 22.1319L14 15.2351L20.8985 22.1336C21.0644 22.2854 21.2825 22.3674 21.5074 22.3624C21.7322 22.3574 21.9465 22.2659 22.1055 22.1069C22.2646 21.9478 22.3561 21.7336 22.3611 21.5087C22.3661 21.2839 22.2841 21.0658 22.1323 20.8999L15.2338 14.0014L22.1323 7.10111C22.2165 7.02081 22.2839 6.92448 22.3304 6.81778C22.3769 6.71107 22.4016 6.59615 22.403 6.47977C22.4044 6.36338 22.3826 6.24789 22.3388 6.14006C22.2949 6.03224 22.23 5.93427 22.1477 5.85191C22.0655 5.76955 21.9676 5.70446 21.8599 5.66047C21.7521 5.61648 21.6366 5.59448 21.5202 5.59576C21.4039 5.59703 21.2889 5.62156 21.1821 5.6679C21.0754 5.71425 20.9789 5.78147 20.8985 5.86561V5.86736Z" fill="black"/>
</svg>
