<svg width="24" height="24" viewBox="0 0 24 24" fill="none" xmlns="http://www.w3.org/2000/svg">
<g clip-path="url(#clip0_581_3090)">
<path d="M4.29899 22.2748C4.18199 22.9408 4.83899 23.4613 5.41799 23.1643L12.003 19.7803L18.5865 23.1643C19.1655 23.4613 19.8225 22.9408 19.7055 22.2763L18.4605 15.1813L23.7435 10.1473C24.2385 9.67626 23.9835 8.81526 23.3205 8.72226L15.9735 7.67826L12.6975 1.18776C12.6351 1.0562 12.5366 0.945037 12.4136 0.867201C12.2905 0.789365 12.1479 0.748047 12.0022 0.748047C11.8566 0.748047 11.714 0.789365 11.5909 0.867201C11.4679 0.945037 11.3694 1.0562 11.307 1.18776L8.03099 7.67976L0.683994 8.72376C0.0224943 8.81676 -0.234006 9.67776 0.259494 10.1488L5.54399 15.1828L4.29899 22.2778V22.2748ZM11.6565 18.1243L6.12749 20.9653L7.16849 15.0298C7.19288 14.8931 7.18334 14.7526 7.14071 14.6205C7.09808 14.4884 7.02366 14.3689 6.92399 14.2723L2.56499 10.1173L8.64299 9.25326C8.76885 9.23426 8.88823 9.18503 8.99089 9.10979C9.09356 9.03455 9.17646 8.93555 9.23249 8.82126L12 3.33426L14.7705 8.82126C14.8265 8.93555 14.9094 9.03455 15.0121 9.10979C15.1148 9.18503 15.2341 9.23426 15.36 9.25326L21.438 10.1158L17.079 14.2708C16.9791 14.3675 16.9045 14.4873 16.8619 14.6197C16.8193 14.7521 16.8098 14.8929 16.8345 15.0298L17.8755 20.9653L12.3465 18.1243C12.2396 18.0691 12.121 18.0404 12.0007 18.0404C11.8805 18.0404 11.7619 18.0691 11.655 18.1243H11.6565Z" fill="#ffc107"/>
</g>
<defs>
<clipPath id="clip0_581_3090">
<rect width="24" height="24" fill="white"/>
</clipPath>
</defs>
</svg>
