<svg width="28" height="28" viewBox="0 0 28 28" fill="none" xmlns="http://www.w3.org/2000/svg">
<path d="M26.0398 8.3651C25.8986 7.81243 25.6806 7.28228 25.3923 6.7901C25.1153 6.2781 24.7612 5.8118 24.3423 5.4076C23.735 4.80233 23.0158 4.3209 22.2248 3.9901C20.6326 3.33663 18.847 3.33663 17.2548 3.9901C16.5071 4.30657 15.8202 4.75069 15.2248 5.3026L15.1373 5.4076L13.9998 6.5451L12.8623 5.4076L12.7748 5.3026C12.1794 4.75069 11.4924 4.30657 10.7448 3.9901C9.15256 3.33663 7.36702 3.33663 5.77479 3.9901C4.98376 4.3209 4.26459 4.80233 3.65729 5.4076C2.82667 6.2158 2.23869 7.24023 1.95979 8.3651C1.81141 8.93634 1.74078 9.52498 1.74979 10.1151C1.74979 10.6699 1.81979 11.2229 1.95979 11.7601C2.1065 12.3027 2.31802 12.8256 2.58979 13.3176C2.88329 13.8234 3.24222 14.2882 3.65729 14.7001L13.9998 25.0426L24.3423 14.7001C24.757 14.2924 25.1123 13.8251 25.3923 13.3176C25.9607 12.3465 26.2569 11.2403 26.2498 10.1151C26.2589 9.52498 26.1882 8.93633 26.0398 8.3651V8.3651ZM24.2898 11.2176C24.0802 12.0172 23.6637 12.7475 23.0823 13.3351L13.9648 22.4351L4.84729 13.3351C4.55018 13.0359 4.29152 12.7008 4.07729 12.3376C3.8757 11.9783 3.71711 11.5965 3.60479 11.2001C3.51512 10.8038 3.46818 10.3989 3.46479 9.9926C3.46716 9.57464 3.51409 9.15812 3.60479 8.7501C3.71382 8.35257 3.87257 7.97038 4.07729 7.6126C4.28729 7.2451 4.54629 6.9126 4.84729 6.6151C5.29686 6.17155 5.82501 5.8155 6.40479 5.5651C7.57311 5.09772 8.87646 5.09772 10.0448 5.5651C10.6223 5.80485 11.1438 6.1566 11.5848 6.5976L13.9648 8.9951L16.3448 6.5976C16.7855 6.15582 17.3087 5.805 17.8848 5.5651C19.0531 5.09772 20.3565 5.09772 21.5248 5.5651C22.104 5.81535 22.6325 6.17235 23.0823 6.6151C23.3868 6.90385 23.6423 7.23985 23.8348 7.6126C24.2401 8.32741 24.4513 9.13587 24.4473 9.9576C24.4711 10.3804 24.4358 10.8045 24.3423 11.2176H24.2898V11.2176Z" fill="#D6D6D6"/>
</svg>
