<svg width="19" height="19" viewBox="0 0 19 19" fill="none" xmlns="http://www.w3.org/2000/svg">
<path d="M7.82091 1.0375H7.82088H2.375C2.02027 1.0375 1.68007 1.17841 1.42924 1.42924C1.17841 1.68007 1.0375 2.02027 1.0375 2.375V7.82088V7.82091C1.03758 8.1756 1.17853 8.51573 1.42937 8.7665C1.42938 8.76651 1.42938 8.76652 1.42939 8.76652L9.74187 17.079L9.74189 17.079C9.99271 17.3298 10.3328 17.4706 10.6875 17.4706C11.0422 17.4706 11.3823 17.3298 11.6331 17.079L11.6331 17.079L17.079 11.6331L17.079 11.6331C17.3298 11.3823 17.4706 11.0422 17.4706 10.6875C17.4706 10.3328 17.3298 9.99271 17.079 9.74189L17.079 9.74187L8.76652 1.42939C8.76652 1.42938 8.76651 1.42938 8.7665 1.42937C8.51573 1.17853 8.1756 1.03758 7.82091 1.0375ZM10.6875 15.9212L2.525 7.75874V2.525H7.75874L15.9212 10.6875L10.6875 15.9212Z" fill="#FF5252" stroke="#FF5252" stroke-width="0.3"/>
<path fill-rule="evenodd" clip-rule="evenodd" d="M5.34375 5.9375C5.50122 5.9375 5.65224 5.87494 5.76359 5.76359C5.87494 5.65224 5.9375 5.50122 5.9375 5.34375C5.9375 5.18628 5.87494 5.03526 5.76359 4.92391C5.65224 4.81256 5.50122 4.75 5.34375 4.75C5.18628 4.75 5.03526 4.81256 4.92391 4.92391C4.81256 5.03526 4.75 5.18628 4.75 5.34375C4.75 5.50122 4.81256 5.65224 4.92391 5.76359C5.03526 5.87494 5.18628 5.9375 5.34375 5.9375ZM5.34375 7.125C5.81617 7.125 6.26923 6.93733 6.60328 6.60328C6.93733 6.26923 7.125 5.81617 7.125 5.34375C7.125 4.87133 6.93733 4.41827 6.60328 4.08422C6.26923 3.75017 5.81617 3.5625 5.34375 3.5625C4.87133 3.5625 4.41827 3.75017 4.08422 4.08422C3.75017 4.41827 3.5625 4.87133 3.5625 5.34375C3.5625 5.81617 3.75017 6.26923 4.08422 6.60328C4.41827 6.93733 4.87133 7.125 5.34375 7.125Z" fill="#FF5252"/>
</svg>
