<svg width="15" height="17" viewBox="0 0 15 17" fill="none" xmlns="http://www.w3.org/2000/svg">
<path d="M13.8261 7C13.8261 11.6667 7.68099 15.6667 7.68099 15.6667C7.68099 15.6667 1.53589 11.6667 1.53589 7C1.53589 5.4087 2.18332 3.88258 3.33575 2.75736C4.48817 1.63214 6.0512 1 7.68099 1C9.31077 1 10.8738 1.63214 12.0262 2.75736C13.1787 3.88258 13.8261 5.4087 13.8261 7Z" stroke="#FF5252" stroke-width="1.8" stroke-linecap="round" stroke-linejoin="round"/>
<path d="M7.68093 9C8.81221 9 9.7293 8.10457 9.7293 7C9.7293 5.89543 8.81221 5 7.68093 5C6.54965 5 5.63257 5.89543 5.63257 7C5.63257 8.10457 6.54965 9 7.68093 9Z" stroke="#FF5252" stroke-width="1.8" stroke-linecap="round" stroke-linejoin="round"/>
</svg>
