<svg width="21" height="20" viewBox="0 0 21 20" fill="none" xmlns="http://www.w3.org/2000/svg">
<path d="M10.5 6.25C11.1904 6.25 11.75 5.69036 11.75 5C11.75 4.30964 11.1904 3.75 10.5 3.75C9.80964 3.75 9.25 4.30964 9.25 5C9.25 5.69036 9.80964 6.25 10.5 6.25Z" fill="#BDBDBD"/>
<path d="M10.5 11.25C11.1904 11.25 11.75 10.6904 11.75 10C11.75 9.30964 11.1904 8.75 10.5 8.75C9.80964 8.75 9.25 9.30964 9.25 10C9.25 10.6904 9.80964 11.25 10.5 11.25Z" fill="#BDBDBD"/>
<path d="M10.5 16.25C11.1904 16.25 11.75 15.6904 11.75 15C11.75 14.3096 11.1904 13.75 10.5 13.75C9.80964 13.75 9.25 14.3096 9.25 15C9.25 15.6904 9.80964 16.25 10.5 16.25Z" fill="#BDBDBD"/>
</svg>
