<svg width="28" height="28" viewBox="0 0 28 28" fill="none" xmlns="http://www.w3.org/2000/svg">
<path d="M26.0398 8.3651C25.8986 7.81243 25.6806 7.28228 25.3923 6.7901C25.1153 6.2781 24.7612 5.8118 24.3423 5.4076C23.735 4.80233 23.0158 4.3209 22.2248 3.9901C20.6326 3.33663 18.847 3.33663 17.2548 3.9901C16.5071 4.30657 15.8202 4.75069 15.2248 5.3026L15.1373 5.4076L13.9998 6.5451L12.8623 5.4076L12.7748 5.3026C12.1794 4.75069 11.4924 4.30657 10.7448 3.9901C9.15256 3.33663 7.36702 3.33663 5.77479 3.9901C4.98376 4.3209 4.26459 4.80233 3.65729 5.4076C2.82667 6.2158 2.23869 7.24023 1.95979 8.3651C1.81141 8.93634 1.74078 9.52498 1.74979 10.1151C1.74979 10.6716 1.81979 11.2246 1.95979 11.7601C2.1065 12.3027 2.31802 12.8256 2.58979 13.3176C2.88329 13.8234 3.24222 14.2882 3.65729 14.7001L13.9998 25.0426L24.3423 14.7001C24.757 14.2941 25.1123 13.8286 25.3923 13.3176C25.9607 12.3465 26.2569 11.2403 26.2498 10.1151C26.2589 9.52498 26.1882 8.93633 26.0398 8.3651V8.3651Z" fill="#FF5252"/>
</svg>
