<svg width="236" height="46" viewBox="0 0 236 46" fill="none" xmlns="http://www.w3.org/2000/svg">
<path d="M57.2792 4.22L64.9392 6.8L65.2592 6.02L57.8392 3.54C58.1192 3.12 58.2992 2.66 58.3992 2.16H64.7392V1.38H50.5192V2.16H57.5592C57.0192 4.6 53.2992 5.84 50.1592 5.94V6.72C52.7192 6.64 55.6792 5.86 57.2792 4.22ZM58.0392 8.48V6.36H57.1992V8.48H49.1792V9.24H66.0592V8.48H58.0392ZM58.0392 10.14H57.1792V11.72H50.0792V12.48H65.0992V11.72H58.0392V10.14ZM57.5992 13.54C52.8792 13.54 50.9992 14.44 50.9992 15.82C50.9992 17.2 52.8792 18.08 57.5992 18.08C62.3192 18.08 64.1992 17.2 64.1992 15.82C64.1992 14.44 62.3192 13.54 57.5992 13.54ZM57.5992 17.32C53.9992 17.32 51.8392 16.76 51.8392 15.82C51.8392 14.88 53.9992 14.3 57.5992 14.3C61.1992 14.3 63.3592 14.88 63.3592 15.82C63.3592 16.76 61.1992 17.32 57.5992 17.32ZM84.8616 8.48H82.1616V0.999999H81.3216V18.08H82.1616V9.26H84.8616V8.48ZM72.8016 1.56C69.9616 1.56 67.8816 4.08 67.8816 9.34C67.8816 14.6 69.9616 17.12 72.8016 17.12C75.6416 17.12 77.7216 14.6 77.7216 9.34C77.7216 4.08 75.6416 1.56 72.8016 1.56ZM72.8016 16.34C70.4816 16.34 68.7416 14.08 68.7416 9.34C68.7416 4.6 70.4816 2.34 72.8016 2.34C75.1216 2.34 76.8616 4.6 76.8616 9.34C76.8616 14.08 75.1216 16.34 72.8016 16.34ZM95.7936 0.959999H94.9536V4.14H89.8536V4.92H100.914V4.14H95.7936V0.959999ZM107.154 8.48H104.454V0.999999H103.614V18.08H104.454V9.26H107.154V8.48ZM95.3736 6.8C92.8536 6.8 90.7936 8.78 90.7936 11.94C90.7936 15.1 92.8536 17.08 95.3736 17.08C97.8936 17.08 99.9536 15.1 99.9536 11.94C99.9536 8.78 97.8936 6.8 95.3736 6.8ZM95.3736 16.3C93.3736 16.3 91.6536 14.62 91.6536 11.94C91.6536 9.26 93.3736 7.58 95.3736 7.58C97.3736 7.58 99.0936 9.26 99.0936 11.94C99.0936 14.62 97.3736 16.3 95.3736 16.3ZM109.636 1.1H108.796V7.4H123.096V6.62H109.636V1.1ZM124.276 9.98H107.396V10.76H124.276V9.98ZM109.596 12.78H108.756V17.7H123.336V16.92H109.596V12.78ZM138.128 1.04C134.288 1.04 130.808 1.96 130.808 4.18C130.808 6.4 134.288 7.32 138.128 7.32C141.968 7.32 145.448 6.4 145.448 4.18C145.448 1.96 141.968 1.04 138.128 1.04ZM138.128 1.82C141.448 1.82 144.588 2.54 144.588 4.18C144.588 5.82 141.448 6.54 138.128 6.54C134.808 6.54 131.668 5.82 131.668 4.18C131.668 2.54 134.808 1.82 138.128 1.82ZM146.568 9.24H129.688V10.02H146.568V9.24ZM145.228 12.34H131.048V17.7H145.228V12.34ZM131.888 16.92V13.12H144.388V16.92H131.888ZM162.31 0.999999V11.24H163.15V0.999999H162.31ZM153.47 6.24L159.23 10.32L159.73 9.66L153.83 5.48C154.33 4.2 154.61 2.78 154.61 1.28L153.77 1.24C153.77 5.18 151.63 8.92 147.95 9.72V10.52C150.45 10.02 152.35 8.42 153.47 6.24ZM149.09 13.22H162.31V17.92H163.15V12.44H149.09V13.22ZM174.053 1.12C170.213 1.12 166.753 1.92 166.753 4.1C166.753 6.28 170.213 7.08 174.053 7.08C177.893 7.08 181.353 6.28 181.353 4.1C181.353 1.92 177.893 1.12 174.053 1.12ZM174.053 1.88C177.373 1.88 180.493 2.48 180.493 4.1C180.493 5.72 177.373 6.32 174.053 6.32C170.733 6.32 167.613 5.72 167.613 4.1C167.613 2.48 170.733 1.88 174.053 1.88ZM182.493 8.62H165.613V9.38H182.493V8.62ZM181.193 11.42H166.893V12.18H180.353V14.16H166.933V17.7H181.573V16.94H167.773V14.9H181.193V11.42ZM12.1676 33.66H15.0476V39.84H16.9476V28H15.0476V31.82H12.1676V28.1H10.2676V37.94H12.1676V33.66ZM8.2676 31.46V28.42H0.907597V30.1H6.3476V31.58C6.3476 34.72 4.1276 36.56 0.907597 36.6V38.34C5.0676 38.32 8.2676 35.86 8.2676 31.46ZM17.7276 43.34L10.3676 40.4C10.6476 39.88 10.8476 39.32 10.9876 38.7L9.0076 38.24C8.3676 41.28 5.0876 42.98 1.8076 43V44.86C4.6876 44.84 7.5876 43.82 9.3676 41.82L16.9676 45.08L17.7276 43.34ZM26.83 32.84L34.19 37.04L35.11 35.38L27.79 31.32C28.27 30.36 28.63 29.3 28.83 28.2L26.79 27.88C26.05 31.92 22.57 35.2 18.89 35.18V37.06C22.01 37.04 24.93 35.42 26.83 32.84ZM35.55 38.86H18.49V40.7H25.99V45.48H28.01V40.7H35.55V38.86ZM56.242 31.26V28H54.262V37.44H56.242V33.14H58.642V31.26H56.242ZM46.602 33.36L51.642 36.7L52.662 35.24L47.362 31.8C47.762 30.72 47.982 29.54 47.982 28.28L46.002 28.16C45.962 31.76 44.062 34.72 40.822 35.3V37.1C43.362 36.76 45.362 35.36 46.602 33.36ZM49.182 38C45.102 38 41.862 38.98 41.862 41.54C41.862 44.1 45.102 45.08 49.182 45.08C53.282 45.08 56.502 44.1 56.502 41.54C56.502 38.98 53.282 38 49.182 38ZM49.182 43.44C46.282 43.44 43.982 42.86 43.982 41.54C43.982 40.24 46.282 39.64 49.182 39.64C52.102 39.64 54.382 40.24 54.382 41.54C54.382 42.86 52.102 43.44 49.182 43.44ZM74.2445 32.62V28H72.2645V40.98H74.2445V34.48H76.6045V32.62H74.2445ZM67.2245 34.9H69.2045V28.28H59.5645V30H67.2245V34.9ZM70.8445 37.48V35.78C69.6645 36.28 67.5845 36.44 65.2445 36.44H64.0445V32.38H62.0845V36.44H58.7445V38.14H65.1845C67.6245 38.14 69.7645 37.96 70.8445 37.48ZM61.9445 39.84H59.9445V44.86H74.7045V43.14H61.9445V39.84ZM87.3269 33.26H90.8069V36.88H92.7869V28H90.8069V31.42H87.2869C86.8069 29.5 84.9069 28.2 82.1469 28.2C78.9069 28.2 76.8669 29.96 76.8669 32.42C76.8669 34.9 78.9069 36.64 82.1469 36.64C84.9869 36.64 86.9069 35.28 87.3269 33.26ZM78.8469 32.42C78.8469 30.82 80.1869 29.84 82.1469 29.84C84.1069 29.84 85.4269 30.82 85.4269 32.42C85.4269 34.02 84.1069 35 82.1469 35C80.1869 35 78.8469 34.02 78.8469 32.42ZM94.5469 43.56L90.9669 40.48C91.2469 39.66 91.4469 38.72 91.5069 37.7L89.6069 37.56C89.3869 40.86 87.8269 42.9 86.0669 43.12V44.86C87.7669 44.74 89.2669 43.74 90.2469 42.08L93.3269 44.88L94.5469 43.56ZM83.5669 39.62H80.0069V37.62H78.2269V44.86H85.3669V37.62H83.5669V39.62ZM80.0069 43.28V41.16H83.5669V43.28H80.0069ZM108.629 45.08H110.629V28H108.629V45.08ZM100.569 44.28C103.589 44.28 105.729 41.76 105.729 36.34C105.729 30.92 103.589 28.4 100.569 28.4C97.5293 28.4 95.3893 30.92 95.3893 36.34C95.3893 41.76 97.5293 44.28 100.569 44.28ZM100.569 42.46C98.7493 42.46 97.3693 40.68 97.3693 36.34C97.3693 32.02 98.7493 30.22 100.569 30.22C102.349 30.22 103.749 32.02 103.749 36.34C103.749 40.68 102.349 42.46 100.569 42.46ZM131.861 40.74H132.701V28H131.861V32.1H126.901V32.86H131.861V40.74ZM122.501 33.68L127.981 38.1L128.561 37.44L122.841 32.82C123.341 31.46 123.601 29.92 123.601 28.28L122.761 28.24C122.761 32.52 120.801 36.52 117.181 37.32V38.12C119.621 37.62 121.421 35.96 122.501 33.68ZM119.621 43.9V39.7H118.781V44.68H133.181V43.9H119.621ZM150.144 28V32.52H146.224V28.12H145.384V38.78H146.224V33.3H150.144V38.96H150.984V28H150.144ZM143.764 37.24V36.46C142.444 36.98 140.684 37.14 138.484 37.14H136.564V33.58H142.984V32.82H136.564V29.36H143.224V28.6H135.724V37.9H138.364C140.624 37.9 142.464 37.74 143.764 37.24ZM136.484 40.94H150.144V44.92H150.984V40.16H136.484V40.94ZM157.586 27.98H156.746V31.12H152.626V31.9H161.726V31.12H157.586V27.98ZM168.106 28V35.38H164.266V28.12H163.426V44.78H164.266V36.14H168.106V45.08H168.946V28H168.106ZM157.266 33.76C155.046 33.76 153.466 35.66 153.466 38.92C153.466 42.18 155.046 44.08 157.266 44.08C159.486 44.08 161.066 42.18 161.066 38.92C161.066 35.66 159.486 33.76 157.266 33.76ZM157.266 43.3C155.566 43.3 154.326 41.7 154.326 38.92C154.326 36.14 155.566 34.54 157.266 34.54C158.966 34.54 160.206 36.14 160.206 38.92C160.206 41.7 158.966 43.3 157.266 43.3ZM183.138 32.68L191.098 36.68L191.538 35.96L183.538 31.98C183.938 31.2 184.198 30.36 184.318 29.42H191.118V28.64H176.278V29.42H183.478C182.938 33.12 179.858 35.52 175.778 36V36.8C178.878 36.44 181.618 35.02 183.138 32.68ZM192.138 39.14H175.258V39.92H183.238V45.48H184.078V39.92H192.138V39.14ZM208.361 28V45.08H209.201V28H208.361ZM204.201 34.34H200.821V35.12H204.201V44.78H205.041V28.12H204.201V34.34ZM198.481 28.52L197.641 28.5C197.601 36.24 196.861 41.72 193.501 43.04V43.88C195.881 43.04 197.221 40.8 197.901 36.96L201.721 43.6L202.421 43.14L198.101 35.7C198.361 33.68 198.461 31.3 198.481 28.52ZM223.683 43.3V37.86C225.823 37.06 227.083 35.54 227.083 33.52C227.083 30.44 224.163 28.54 219.623 28.54C215.083 28.54 212.163 30.44 212.163 33.52C212.163 35.54 213.423 37.06 215.583 37.86V43.3H211.183V44.08H228.063V43.3H223.683ZM213.023 33.52C213.023 30.96 215.623 29.32 219.623 29.32C223.623 29.32 226.223 30.96 226.223 33.52C226.223 36.08 223.623 37.72 219.623 37.72C215.623 37.72 213.023 36.08 213.023 33.52ZM216.423 38.12C217.363 38.38 218.443 38.5 219.623 38.5C220.823 38.5 221.903 38.36 222.843 38.12V43.3H216.423V38.12ZM234.995 28.74H233.895L234.075 40.88H234.815L234.995 28.74ZM234.435 43C233.915 43 233.495 43.42 233.495 43.94C233.495 44.46 233.915 44.88 234.435 44.88C234.955 44.88 235.375 44.46 235.375 43.94C235.375 43.42 234.955 43 234.435 43Z" fill="#FF5252"/>
</svg>
