<svg width="129" height="123" viewBox="0 0 129 123" fill="none" xmlns="http://www.w3.org/2000/svg">
<g clip-path="url(#clip0_288_1226)">
<path d="M117.123 63.6018C117.123 64.3401 117.108 65.0712 117.079 65.7949H11.9203C11.8911 65.0712 11.8765 64.3401 11.8765 63.6018C11.8765 62.8634 11.8911 62.1324 11.9203 61.4086C13.0459 34.0818 34.9868 12.1355 62.3071 11.017C62.3582 11.017 62.4167 11.0097 62.4678 11.0097C63.1403 10.9804 63.82 10.9658 64.4997 10.9658C65.2379 10.9658 65.9688 10.9804 66.6923 11.0097C66.7435 11.0097 66.802 11.017 66.8531 11.017C94.0929 12.2159 115.961 34.1403 117.079 61.4086C117.108 62.1324 117.123 62.8634 117.123 63.6018Z" fill="#FF5252"/>
<path d="M129 63.6014C129 64.8149 128.021 65.7945 126.807 65.7945H2.19263C0.979377 65.7945 0 64.8149 0 63.6014C0 62.3878 0.979377 61.4082 2.19263 61.4082H126.807C128.021 61.4082 129 62.3878 129 63.6014Z" fill="#FF5252"/>
<path d="M76.282 4.38633H52.7112C51.4979 4.38633 50.5186 3.40672 50.5186 2.19317C50.5186 0.979614 51.4979 0 52.7112 0H76.282C77.4953 0 78.4746 0.979614 78.4746 2.19317C78.4746 3.40672 77.4953 4.38633 76.282 4.38633Z" fill="#FF5252"/>
<path d="M66.6924 4.10869V65.7951H62.3071V4.10869C62.3071 2.89514 63.2938 1.91553 64.4998 1.91553C65.7057 1.91553 66.6924 2.89514 66.6924 4.10869Z" fill="#FF5252"/>
<path d="M64.1345 123C57.0303 123 50.1381 121.611 43.6479 118.862C37.377 116.208 31.7566 112.414 26.9255 107.582C22.0943 102.749 18.3011 97.1204 15.648 90.8479C12.9072 84.3561 11.5112 77.4623 11.5112 70.3564C11.5112 69.3476 12.3298 68.5288 13.3384 68.5288C14.347 68.5288 15.1656 69.3476 15.1656 70.3564C15.1656 76.9725 16.4593 83.3838 19.01 89.4224C21.4731 95.2562 25.0105 100.491 29.5054 104.994C34.0003 109.49 39.2407 113.021 45.0732 115.492C51.1102 118.043 57.52 119.337 64.1345 119.337C70.7489 119.337 77.1587 118.043 83.1958 115.492C89.0282 113.021 94.2613 109.49 98.7635 104.994C103.266 100.498 106.796 95.2562 109.259 89.4224C111.81 83.3838 113.103 76.9725 113.103 70.3564C113.103 69.3476 113.922 68.5288 114.93 68.5288C115.939 68.5288 116.758 69.3476 116.758 70.3564C116.758 77.4623 115.369 84.3561 112.621 90.8479C109.968 97.1131 106.175 102.742 101.343 107.582C96.5124 112.414 90.8846 116.208 84.621 118.862C78.1308 121.611 71.2386 123 64.1345 123Z" fill="#FF5252"/>
<path d="M114.93 68.5356C113.922 68.5356 113.103 69.3544 113.103 70.3633C113.103 76.9793 111.81 83.3907 109.259 89.4292C106.796 95.263 103.258 100.497 98.7635 105.001C94.2686 109.497 89.0282 113.028 83.1958 115.499C77.1587 118.05 70.7489 119.344 64.1345 119.344C57.52 119.344 51.1102 118.05 45.0732 115.499C39.2407 113.028 34.0077 109.497 29.5054 105.001C25.0105 100.505 21.4731 95.263 19.01 89.4292C16.4593 83.3907 15.1656 76.9793 15.1656 70.3633C15.1656 69.3544 14.347 68.5356 13.3384 68.5356C12.3298 68.5356 11.5112 69.3544 11.5112 70.3633C11.5112 77.4691 12.8999 84.363 15.648 90.8548C18.3011 97.1199 22.0943 102.749 26.9255 107.589C31.7566 112.421 37.3843 116.215 43.6479 118.869C50.1381 121.61 57.0303 123.007 64.1345 123.007C71.2386 123.007 78.1308 121.618 84.621 118.869C90.8919 116.215 96.5124 112.421 101.343 107.589C106.175 102.756 109.968 97.1272 112.621 90.8548C115.362 84.363 116.758 77.4691 116.758 70.3633C116.758 69.3544 115.939 68.5356 114.93 68.5356Z" fill="#FF5252"/>
<path d="M30.5289 42.4524C30.1781 42.4524 29.8199 42.3501 29.5056 42.1381C28.6724 41.5752 28.4459 40.4347 29.016 39.6013C29.7834 38.4682 30.6166 37.3497 31.4863 36.297C32.3561 35.2369 33.2916 34.2135 34.2564 33.2485C35.2284 32.2762 36.2517 31.3477 37.3041 30.4778C38.3639 29.6078 39.4748 28.7744 40.6077 28.0068C41.7479 27.2392 42.9392 26.5154 44.1451 25.8575C45.3584 25.1995 46.6228 24.5855 47.8945 24.0518C49.1809 23.5108 50.5111 23.021 51.8413 22.6043C53.1934 22.1876 54.5748 21.8294 55.9561 21.5443C57.3594 21.2592 58.7919 21.0398 60.2171 20.8936C61.6643 20.7474 63.1407 20.6743 64.6024 20.6743C65.611 20.6743 66.4296 21.4931 66.4296 22.502C66.4296 23.5108 65.611 24.3296 64.6024 24.3296C63.2649 24.3296 61.9128 24.3954 60.5826 24.5343C59.2743 24.6659 57.966 24.8706 56.687 25.1264C55.4226 25.3823 54.1582 25.7113 52.923 26.0914C51.7024 26.4716 50.4892 26.9175 49.3198 27.4146C48.1504 27.9044 47.0029 28.4674 45.8919 29.0668C44.781 29.6663 43.692 30.3316 42.6541 31.0334C41.6163 31.7352 40.6004 32.4955 39.6283 33.2923C38.6636 34.0892 37.728 34.9445 36.8364 35.8291C35.9447 36.7137 35.0969 37.6494 34.3002 38.6217C33.5036 39.5867 32.7434 40.6029 32.0418 41.6483C31.691 42.1673 31.1136 42.4524 30.5289 42.4524Z" fill="white"/>
<path d="M32.4222 71.5625C32.0713 78.0543 31.6109 83.4129 30.595 86.9585C29.5791 90.5041 28.1392 92.3245 26.0124 92.5803C24.5652 90.3287 23.8709 89.1955 22.5699 86.9147C24.1121 86.8342 25.3107 86.0155 26.3193 84.334C27.3279 82.6526 27.8688 80.4083 27.9346 77.7253C25.34 77.4621 24.0463 77.3159 21.4882 77.0162C21.2763 74.7133 21.2397 73.4925 21.3055 71.1897C25.7346 71.3578 27.9565 71.4309 32.4149 71.5625H32.4222ZM42.3913 104.482C43.093 107.114 43.1661 108.883 42.6837 109.767C42.2086 110.659 41.2073 110.513 39.5775 109.387C37.9549 108.269 36.3762 106.712 34.666 104.869C32.9484 103.027 31.3039 101.119 30.0176 98.9478C28.7605 96.8278 28.4096 95.2852 28.9797 94.2837C29.5498 93.2821 31.0335 93.0409 33.2554 93.6769C35.4919 94.3202 37.4579 95.585 39.0512 97.5588C40.6519 99.54 41.7116 101.901 42.3913 104.475V104.482ZM39.0293 103.268C38.7443 102.413 38.2546 101.602 37.531 100.856C36.8074 100.103 35.9231 99.5473 34.9072 99.1598C33.9058 98.7724 33.2407 98.7285 32.9265 99.0063C32.6122 99.2841 32.6487 99.8105 33.0288 100.585C33.4308 101.411 34.0155 102.186 34.7464 102.939C35.4772 103.685 36.2739 104.314 37.1875 104.789C38.1084 105.271 38.715 105.366 39.022 105.081C39.329 104.789 39.3363 104.189 39.0366 103.276L39.0293 103.268ZM41.8432 86.9951C40.7396 86.8635 40.1914 86.7904 39.0951 86.6369C39.4021 90.2921 39.6359 92.0686 40.2133 95.4972C38.7443 95.1756 38.0207 95.0001 36.5736 94.6346C34.761 86.0374 34.2567 77.177 34.9583 68.4263H38.9928C38.6492 72.9734 38.5981 75.3932 38.715 79.9696C39.8406 80.0647 40.4034 80.1085 41.5289 80.1889C41.5801 82.9596 41.6458 84.3194 41.8286 86.9951H41.8432Z" fill="#FF5252"/>
<path d="M55.5471 86.8123C55.7663 89.5976 55.8906 90.972 56.1464 93.6622C53.6687 94.8539 50.4455 95.2048 46.4769 94.6272C46.2357 94.5907 46.1114 94.5761 45.8702 94.5395C45.6948 94.5103 45.4244 94.4664 45.0736 94.3933C44.7228 94.3202 44.4523 94.269 44.2623 94.2398C43.3268 86.3883 43.3926 78.6171 43.5461 70.7291C45.1467 70.751 45.9433 70.7583 47.544 70.7802C47.2589 77.6302 47.2735 81.2709 47.5878 87.8723C47.7778 87.8869 47.8802 87.9015 48.0702 87.9162C50.4748 88.1355 52.9525 87.7846 55.5471 86.8123ZM61.7376 116.442C56.5995 116.142 54.1073 115.616 49.4516 113.986C47.9752 108.203 47.3612 104.957 46.5207 98.034C52.2727 99.0355 55.2401 99.3572 61.2845 99.5399C61.4087 106.843 61.5037 110.279 61.7449 116.442H61.7376ZM57.9882 110.71C57.842 108.605 57.7689 107.523 57.6447 105.301C54.9112 105.067 53.5664 104.884 50.9133 104.423C51.1764 106.587 51.3226 107.64 51.6369 109.687C54.1292 110.228 55.4009 110.433 57.9882 110.71ZM64.0472 86.3809C62.8851 86.3809 62.3004 86.3736 61.1383 86.3517C61.1602 90.9062 61.1821 93.1213 61.2479 97.3979C59.6546 97.3541 58.858 97.3175 57.2793 97.2152C56.9431 87.6164 56.8992 78.0104 57.1477 68.4043H61.2041C61.1529 72.564 61.1383 74.7499 61.131 78.968C62.2931 78.9827 62.8778 78.9827 64.0472 78.9827C64.0472 81.98 64.0472 83.464 64.0472 86.3663V86.3809Z" fill="#FF5252"/>
<path d="M78.6354 83.4275C73.1684 83.7492 70.3984 83.8369 64.8291 83.8515C64.8291 81.2124 64.8291 79.8746 64.8291 77.1624C70.3838 77.1624 73.1538 77.1039 78.65 76.9211C78.6792 79.5529 78.6719 80.8615 78.6281 83.4275H78.6354ZM77.3564 92.5437C77.2321 94.9124 76.5816 96.857 75.4707 98.4287C74.3524 99.9932 73.0076 100.849 71.3778 100.973C69.7479 101.09 68.4396 100.417 67.4091 98.9405C66.3786 97.4637 65.8523 95.5338 65.8596 93.1432C65.8743 90.8258 66.4224 88.8227 67.526 87.1705C68.6297 85.5183 70.0622 84.663 71.7944 84.6045C73.5119 84.546 74.9152 85.3063 75.9604 86.8488C77.0055 88.3914 77.466 90.2921 77.3564 92.5511V92.5437ZM79.4832 114.205C74.791 115.901 72.2768 116.442 67.0875 116.756C67.2922 111.529 67.3799 108.656 67.5041 102.574C73.5192 102.362 76.472 101.996 82.1509 100.856C81.3177 106.602 80.7696 109.307 79.4759 114.198L79.4832 114.205ZM75.4853 75.4371C72.6641 75.4955 71.2462 75.5175 68.4177 75.5394C68.4031 72.776 68.3885 71.4089 68.3446 68.7114C71.1293 68.7114 72.5253 68.7114 75.3172 68.7114C75.4122 71.3651 75.4488 72.7175 75.4853 75.4444V75.4371ZM69.7406 93.0409C69.726 93.8085 69.8941 94.4299 70.2522 94.9051C70.603 95.3802 71.0562 95.5996 71.6117 95.563C72.1671 95.5338 72.6349 95.256 73.0076 94.7442C73.3877 94.2325 73.5923 93.5965 73.6216 92.8362C73.6508 92.0393 73.4827 91.4033 73.1319 90.95C72.7811 90.4895 72.3133 90.2775 71.7505 90.2994C71.1877 90.3286 70.7127 90.5845 70.3326 91.0816C69.9526 91.5788 69.7625 92.2294 69.7479 93.0409H69.7406ZM77.3856 109.906C77.5537 108.839 77.6341 108.305 77.7949 107.201C75.1418 107.735 73.7824 107.94 71.0343 108.203C70.9612 109.329 70.9246 109.892 70.8442 110.988C73.5119 110.696 74.8202 110.477 77.3856 109.899V109.906ZM86.1269 88.8592C85.0306 89.0054 84.4824 89.0712 83.3788 89.1955C83.1084 93.3479 82.9037 95.3656 82.3921 99.2329C80.9304 99.5034 80.1849 99.6277 78.7012 99.847C79.7317 89.3563 79.7317 78.9388 79.4247 68.4116H83.43C83.7662 73.8945 83.81 76.8334 83.6784 82.309C84.8113 82.2286 85.3741 82.1774 86.4996 82.0823C86.4119 84.8384 86.3388 86.1982 86.1269 88.8519V88.8592Z" fill="#FF5252"/>
<path d="M94.5106 100.82C90.9512 102.472 89.0729 103.196 85.1992 104.365C87.6915 93.692 88.1447 83.121 88.1008 72.2063C89.6868 72.1697 90.4835 72.1478 92.0695 72.0966C92.2449 76.4172 92.223 78.6835 91.9525 82.9089C93.3631 82.7481 94.0648 82.6604 95.4607 82.4776C95.7896 78.3837 95.8408 76.1759 95.6654 71.987C97.2879 71.9358 98.0992 71.9066 99.7145 71.8481C99.4952 81.9951 98.5524 91.3746 94.5033 100.812L94.5106 100.82ZM93.0342 96.7551C93.8747 93.6116 94.2256 91.974 94.7518 88.5966C93.407 88.8597 92.7346 88.984 91.3678 89.2253C90.9293 92.7124 90.6296 94.4084 89.9134 97.6616C91.1778 97.318 91.799 97.1353 93.0342 96.7624V96.7551ZM105.759 88.2164C104.772 88.5381 104.275 88.6916 103.274 88.9986C100.862 96.4262 98.9251 99.8402 94.1379 105.447C93.2243 106.281 92.7492 106.676 91.7844 107.443C99.3636 94.5254 101.783 83.2891 101.586 68.4194H105.569C106.11 74.3775 105.912 77.6527 104.736 83.4426C105.803 83.2233 106.329 83.1136 107.389 82.8797C106.87 85.0656 106.541 86.1402 105.759 88.2091V88.2164Z" fill="#FF5252"/>
</g>
<defs>
<clipPath id="clip0_288_1226">
<rect width="129" height="123" fill="white"/>
</clipPath>
</defs>
</svg>
