<svg width="42" height="42" viewBox="0 0 42 42" fill="none" xmlns="http://www.w3.org/2000/svg">
<path fill-rule="evenodd" clip-rule="evenodd" d="M21.0001 39.7503C31.3553 39.7503 39.7501 31.3555 39.7501 21.0003C39.7501 10.6451 31.3553 2.25033 21.0001 2.25033C10.6449 2.25033 2.25008 10.6451 2.25008 21.0003C2.25008 31.3555 10.6449 39.7503 21.0001 39.7503ZM21.0001 41.8337C32.5063 41.8337 41.8334 32.5066 41.8334 21.0003C41.8334 9.49408 32.5063 0.166992 21.0001 0.166992C9.49383 0.166992 0.166748 9.49408 0.166748 21.0003C0.166748 32.5066 9.49383 41.8337 21.0001 41.8337Z" fill="#FF5252"/>
<path d="M8.5 33.1153C8.5 32.0393 9.30417 31.1299 10.375 31.0112C18.4115 30.1216 23.625 30.2018 31.6437 31.0309C32.0442 31.073 32.4237 31.2307 32.7359 31.4849C33.0482 31.7391 33.2797 32.0788 33.4021 32.4623C33.5245 32.8459 33.5325 33.2568 33.4252 33.6449C33.3179 34.033 33.1 34.3814 32.7979 34.6476C23.3344 42.8966 17.926 42.783 9.16667 34.6559C8.73958 34.2601 8.5 33.6976 8.5 33.1164V33.1153Z" fill="#FF5252"/>
<path fill-rule="evenodd" clip-rule="evenodd" d="M31.5366 32.0656C23.5814 31.2427 18.4429 31.1656 10.4887 32.0458C10.2269 32.0763 9.9855 32.2023 9.81079 32.3997C9.63608 32.5971 9.54032 32.852 9.54184 33.1156C9.54184 33.4135 9.66579 33.6958 9.87517 33.8916C14.2168 37.9187 17.5064 39.7385 20.722 39.75C23.9491 39.7614 27.4158 37.9562 32.1137 33.8625C32.263 33.7296 32.3704 33.5563 32.423 33.3635C32.4756 33.1708 32.471 32.9669 32.4099 32.7766C32.3487 32.5864 32.2337 32.4181 32.0786 32.292C31.9236 32.166 31.7353 32.0877 31.5366 32.0666V32.0656ZM10.2606 29.975C18.3814 29.076 23.671 29.1572 31.7522 29.9937C32.3546 30.0566 32.9256 30.2937 33.3953 30.6761C33.865 31.0585 34.213 31.5696 34.3967 32.1467C34.5805 32.7238 34.5919 33.342 34.4297 33.9256C34.2675 34.5091 33.9387 35.0327 33.4835 35.4322C28.7179 39.5864 24.7491 41.8489 20.7158 41.8333C16.671 41.8187 12.8773 39.5177 8.45954 35.4187C8.14324 35.1241 7.8911 34.7674 7.71886 34.371C7.54662 33.9745 7.45799 33.5468 7.4585 33.1145C7.45698 32.3379 7.74205 31.588 8.25909 31.0085C8.77613 30.429 9.4888 30.0606 10.2606 29.9739V29.975Z" fill="#FF5252"/>
<path d="M29.3334 16.8333C29.3334 19.0435 28.4554 21.1631 26.8926 22.7259C25.3298 24.2887 23.2102 25.1667 21.0001 25.1667C18.7899 25.1667 16.6703 24.2887 15.1075 22.7259C13.5447 21.1631 12.6667 19.0435 12.6667 16.8333C12.6667 14.6232 13.5447 12.5036 15.1075 10.9408C16.6703 9.37797 18.7899 8.5 21.0001 8.5C23.2102 8.5 25.3298 9.37797 26.8926 10.9408C28.4554 12.5036 29.3334 14.6232 29.3334 16.8333Z" fill="#FF5252"/>
<path fill-rule="evenodd" clip-rule="evenodd" d="M21.0001 23.0833C22.6577 23.0833 24.2474 22.4249 25.4195 21.2528C26.5916 20.0806 27.2501 18.4909 27.2501 16.8333C27.2501 15.1757 26.5916 13.586 25.4195 12.4139C24.2474 11.2418 22.6577 10.5833 21.0001 10.5833C19.3425 10.5833 17.7528 11.2418 16.5807 12.4139C15.4086 13.586 14.7501 15.1757 14.7501 16.8333C14.7501 18.4909 15.4086 20.0806 16.5807 21.2528C17.7528 22.4249 19.3425 23.0833 21.0001 23.0833ZM21.0001 25.1667C23.2102 25.1667 25.3298 24.2887 26.8926 22.7259C28.4554 21.1631 29.3334 19.0435 29.3334 16.8333C29.3334 14.6232 28.4554 12.5036 26.8926 10.9408C25.3298 9.37797 23.2102 8.5 21.0001 8.5C18.7899 8.5 16.6703 9.37797 15.1075 10.9408C13.5447 12.5036 12.6667 14.6232 12.6667 16.8333C12.6667 19.0435 13.5447 21.1631 15.1075 22.7259C16.6703 24.2887 18.7899 25.1667 21.0001 25.1667Z" fill="#FF5252"/>
</svg>
